<svg xmlns="http://www.w3.org/2000/svg" viewBox="0 0 24 24" fill="currentColor">
  <path d="M20.317 4.369A19.79 19.79 0 0 0 16.558 3a14.39 14.39 0 0 0-.617 1.265 18.27 18.27 0 0 0-5.487 0A14.27 14.27 0 0 0 9.83 3 19.74 19.74 0 0 0 6.07 4.369C2.04 10.27.94 16.024 1.49 21.696a19.92 19.92 0 0 0 5.99 3.034 14.7 14.7 0 0 0 1.27-2.07 12.8 12.8 0 0 1-2-.953c.168-.123.332-.252.49-.385a14.18 14.18 0 0 0 12.5 0c.16.133.323.262.49.385-.642.378-1.31.696-2 .953.366.71.79 1.402 1.27 2.07a19.88 19.88 0 0 0 5.99-3.034c.65-6.572-1.13-12.273-4.183-17.327ZM8.523 17.96c-1.196 0-2.18-1.1-2.18-2.45 0-1.35.96-2.45 2.18-2.45 1.22 0 2.2 1.1 2.18 2.45 0 1.35-.97 2.45-2.18 2.45Zm6.953 0c-1.196 0-2.18-1.1-2.18-2.45 0-1.35.96-2.45 2.18-2.45 1.22 0 2.2 1.1 2.18 2.45 0 1.35-.96 2.45-2.18 2.45Z"/>
</svg>
